<mxfile host="65bd71144e">
    <diagram id="o3BjvXOkJVVSdCCjuZuq" name="Page-1">
        <mxGraphModel dx="632" dy="629" grid="1" gridSize="10" guides="1" tooltips="1" connect="1" arrows="1" fold="1" page="1" pageScale="1" pageWidth="827" pageHeight="1169" math="0" shadow="0">
            <root>
                <mxCell id="0"/>
                <mxCell id="1" parent="0"/>
                <mxCell id="2" value="" style="whiteSpace=wrap;html=1;" vertex="1" parent="1">
                    <mxGeometry x="200" y="160" width="230" height="260" as="geometry"/>
                </mxCell>
                <mxCell id="3" value="USER" style="text;html=1;resizable=0;autosize=1;align=center;verticalAlign=middle;points=[];fillColor=none;strokeColor=none;rounded=0;" vertex="1" parent="1">
                    <mxGeometry x="290" y="130" width="50" height="20" as="geometry"/>
                </mxCell>
                <mxCell id="4" value="events: {string,callback}" style="text;html=1;resizable=0;autosize=1;align=center;verticalAlign=middle;points=[];fillColor=none;strokeColor=none;rounded=0;" vertex="1" parent="1">
                    <mxGeometry x="245" y="180" width="140" height="20" as="geometry"/>
                </mxCell>
                <mxCell id="5" value="data: UserProps" style="text;html=1;resizable=0;autosize=1;align=center;verticalAlign=middle;points=[];fillColor=none;strokeColor=none;rounded=0;" vertex="1" parent="1">
                    <mxGeometry x="260" y="200" width="100" height="20" as="geometry"/>
                </mxCell>
                <mxCell id="6" value="get(propName:string)" style="text;html=1;resizable=0;autosize=1;align=center;verticalAlign=middle;points=[];fillColor=none;strokeColor=none;rounded=0;" vertex="1" parent="1">
                    <mxGeometry x="250" y="250" width="130" height="20" as="geometry"/>
                </mxCell>
                <mxCell id="7" value="set(UserProp)" style="text;html=1;resizable=0;autosize=1;align=center;verticalAlign=middle;points=[];fillColor=none;strokeColor=none;rounded=0;" vertex="1" parent="1">
                    <mxGeometry x="270" y="270" width="90" height="20" as="geometry"/>
                </mxCell>
                <mxCell id="8" value="on(eventName:String, callback)" style="text;html=1;resizable=0;autosize=1;align=center;verticalAlign=middle;points=[];fillColor=none;strokeColor=none;rounded=0;" vertex="1" parent="1">
                    <mxGeometry x="225" y="310" width="180" height="20" as="geometry"/>
                </mxCell>
                <mxCell id="9" value="trigger(eventName:String)" style="text;html=1;resizable=0;autosize=1;align=center;verticalAlign=middle;points=[];fillColor=none;strokeColor=none;rounded=0;" vertex="1" parent="1">
                    <mxGeometry x="240" y="330" width="150" height="20" as="geometry"/>
                </mxCell>
                <mxCell id="10" value="Fetch()" style="text;html=1;resizable=0;autosize=1;align=center;verticalAlign=middle;points=[];fillColor=none;strokeColor=none;rounded=0;" vertex="1" parent="1">
                    <mxGeometry x="285" y="360" width="50" height="20" as="geometry"/>
                </mxCell>
                <mxCell id="11" value="save()" style="text;html=1;resizable=0;autosize=1;align=center;verticalAlign=middle;points=[];fillColor=none;strokeColor=none;rounded=0;" vertex="1" parent="1">
                    <mxGeometry x="285" y="390" width="50" height="20" as="geometry"/>
                </mxCell>
            </root>
        </mxGraphModel>
    </diagram>
</mxfile>